# xmcd
#
# Track frame offsets:
# 150
# 21476
# 43620
# 67694
# 86863
# 102518
# 120944
# 139376
# 163519
# 188859
# 202654
#
# Disc length: 2939 seconds
#
#
# Revision: 2
# Processed by: cddbd v1.5.1PL2 Copyright (c) Steve Scherf et al.
# Submitted via: FreeRIP 2.944 
#
DISCID=900b790b
DTITLE=林海 - 愛情風華
DYEAR=2004
DGENRE=New Age
TTITLE0=記憶的容顏
TTITLE1=幾度楓紅
TTITLE2=初開
TTITLE3=蔚藍的回憶
TTITLE4=再見往事，再見
TTITLE5=守望
TTITLE6=關於愛情
TTITLE7=風之華
TTITLE8=傷
TTITLE9=靜默
TTITLE10=釀愛
EXTD=YEAR: 2004
EXTT0=
EXTT1=
EXTT2=
EXTT3=
EXTT4=
EXTT5=
EXTT6=
EXTT7=
EXTT8=
EXTT9=
EXTT10=
PLAYORDER=
